<svg width="80" height="80" viewBox="0 0 80 80" fill="none" xmlns="http://www.w3.org/2000/svg">
<path d="M39.875 75.1267C20.2135 75.1267 7.50647 61.4365 7.50647 40.2488C7.50647 19.0612 20.6141 4.87354 40.125 4.87354C59.6359 4.87354 72.4935 18.5638 72.4935 39.7514C72.4935 60.9391 59.3859 75.1267 39.8778 75.1267H39.875Z" fill="#F7F7F7"/>
<path d="M39.875 75.1267C20.2135 75.1267 7.50647 61.4365 7.50647 40.2488C7.50647 19.0612 20.6141 4.87354 40.125 4.87354C59.6359 4.87354 72.4935 18.5638 72.4935 39.7514C72.4935 60.9391 59.3859 75.1267 39.8778 75.1267H39.875ZM40.125 6.79762C21.7646 6.79762 9.42972 20.2406 9.42972 40.2488C9.42972 60.257 21.097 73.2026 39.8778 73.2026C58.6586 73.2026 70.5731 59.7596 70.5731 39.7514C70.5731 19.7433 58.9029 6.79762 40.125 6.79762Z" fill="#3D3D3D"/>
<path d="M27.2422 26.4137H32.9267V26.5814C30.8814 26.6383 30.5497 28.8636 30.5497 31.7028V47.1523H30.3685L17.074 29.0313V40.9168C17.074 44.2023 17.8847 46.456 19.9915 46.5129V46.6805H13.8862V46.5129C15.9315 46.402 16.5335 44.2023 16.5335 40.9168V29.7816C16.5335 27.6642 15.4218 26.8031 13.8862 26.5786V26.4109H20.3538L30.0092 39.689V31.7C30.0092 28.8608 29.5271 26.8287 27.2422 26.5786V26.4109V26.4137Z" fill="#3D3D3D"/>
<path d="M33.7721 46.0127L33.5602 40.8912H33.7414C35.2155 44.5376 37.1717 46.6266 40.209 46.6266C42.4938 46.6266 44.3887 45.2339 44.3887 42.8949C44.3887 40.5559 42.1929 39.4446 39.7575 38.3561L38.1637 37.6598C36.3272 36.8242 34.0423 35.5169 34.0423 32.1746C34.0423 28.6675 36.6589 26.0784 40.5683 26.0784C42.2236 26.0784 44.6896 26.553 46.133 27.0532V31.1458H45.9518C44.3273 27.9712 42.672 26.4706 40.295 26.4706C37.918 26.4706 36.5944 27.8632 36.5944 29.9493C36.5944 32.149 38.3971 32.9846 40.3226 33.8486L41.8858 34.5449C44.5023 35.6874 46.9376 36.9948 46.9376 40.5303C46.9376 44.2591 43.9894 47.0159 39.5978 47.0159C37.8842 47.0159 35.2063 46.5725 33.7629 46.0127H33.7721Z" fill="#3D3D3D"/>
<path d="M48.3663 36.6024C48.3663 30.3669 52.9084 26.0811 59.0443 26.0811C61.9004 26.0811 64.1576 26.8882 65.5734 27.5561L65.7546 32.1205H65.5734C64.0993 28.8634 62.054 26.4704 58.9246 26.4704C55.0735 26.4704 53.1817 30.7563 53.1817 36.5456C53.1817 42.3349 55.2578 46.6235 58.9246 46.6235C62.054 46.6235 64.2805 44.1168 65.9327 40.4449H66.1139L65.4813 45.6771C64.0686 46.2626 61.8421 47.0129 59.0443 47.0129C52.6382 47.0129 48.3663 43.0056 48.3663 36.6024Z" fill="#3D3D3D"/>
<path d="M21.3672 56.4714V53.689H21.7572L23.1545 55.9257V53.689H23.5016V56.4714H23.1115L21.7204 54.246V56.4714H21.3672Z" fill="#3D3D3D"/>
<path d="M25.1107 55.0817C25.1107 54.1666 25.5867 53.6465 26.3913 53.6465C27.196 53.6465 27.675 54.1666 27.675 55.0817C27.675 55.9969 27.196 56.5141 26.3913 56.5141C25.5867 56.5141 25.1107 55.994 25.1107 55.0817ZM27.3188 55.0817C27.3188 54.3485 26.9718 53.9421 26.3913 53.9421C25.8109 53.9421 25.4639 54.3485 25.4639 55.0817C25.4639 55.815 25.8078 56.2214 26.3913 56.2214C26.9748 56.2214 27.3188 55.8178 27.3188 55.0817Z" fill="#3D3D3D"/>
<path d="M29.2816 56.4714V53.689H30.0678C30.6636 53.689 31.158 53.8538 31.158 54.4847C31.158 54.9253 30.9062 55.1384 30.5469 55.2237C30.5776 55.2663 30.6083 55.3146 30.6421 55.3743L31.2532 56.4742H30.8478L30.3258 55.5107C30.2275 55.3288 30.1906 55.3033 30.0002 55.3033H29.6379V56.4742H29.2816V56.4714ZM29.6379 53.9675V55.0247H30.0678C30.4701 55.0247 30.8018 54.8912 30.8018 54.4819C30.8018 54.0726 30.467 53.9675 30.0678 53.9675H29.6379Z" fill="#3D3D3D"/>
<path d="M32.8103 56.4714V53.689H33.661C34.5424 53.689 35.0245 54.1437 35.0245 55.0816C35.0245 56.0195 34.5424 56.4714 33.661 56.4714H32.8103ZM33.1665 53.9817V56.1758H33.6487C34.2967 56.1758 34.6683 55.8177 34.6683 55.0787C34.6683 54.3398 34.2967 53.9817 33.6487 53.9817H33.1665Z" fill="#3D3D3D"/>
<path d="M36.6309 56.4714V53.689H36.9871V56.4714H36.6309Z" fill="#3D3D3D"/>
<path d="M38.6028 55.0817C38.6028 54.1666 39.0788 53.6465 39.8681 53.6465C40.3809 53.6465 40.6481 53.8568 40.8385 54.0898L40.5498 54.2632C40.4209 54.0984 40.2305 53.9421 39.8681 53.9421C39.2969 53.9421 38.959 54.3485 38.959 55.0817C38.959 55.815 39.2969 56.2214 39.8681 56.2214C40.2427 56.2214 40.4761 56.048 40.6021 55.8434L40.8999 55.9827C40.7095 56.2811 40.4024 56.517 39.865 56.517C39.0757 56.517 38.5997 55.9969 38.5997 55.0846L38.6028 55.0817Z" fill="#3D3D3D"/>
<path d="M44.0418 56.082L44.2598 55.8916C44.3704 56.0337 44.6191 56.2326 44.9907 56.2326C45.393 56.2326 45.6203 56.0223 45.6203 55.721C45.6203 55.4368 45.3961 55.3033 45.1074 55.2095L44.8955 55.1441C44.4318 55.0048 44.1523 54.8116 44.1523 54.3682C44.1523 53.9249 44.5116 53.6492 45.0736 53.6492C45.4882 53.6492 45.7769 53.8339 45.9366 54.0272L45.7186 54.2176C45.6141 54.084 45.3777 53.9305 45.0736 53.9305C44.7297 53.9305 44.5086 54.0954 44.5086 54.3625C44.5086 54.6297 44.7205 54.7604 45.0122 54.8514L45.218 54.9196C45.6817 55.0532 45.9735 55.2748 45.9735 55.7154C45.9735 56.1843 45.6141 56.514 44.9815 56.514C44.5024 56.514 44.183 56.261 44.0387 56.082H44.0418Z" fill="#3D3D3D"/>
<path d="M47.9851 56.4714V53.9902H47.1467V53.689H49.1798V53.9902H48.3414V56.4714H47.9851Z" fill="#3D3D3D"/>
<path d="M51.2066 56.4715V55.6331L50.2853 53.6863H50.6692L51.3878 55.2551L52.1064 53.6863H52.4872L51.5628 55.6331V56.4715H51.2066Z" fill="#3D3D3D"/>
<path d="M53.9032 56.4714V53.689H54.2594V56.1701H55.4203L55.3988 56.4714H53.9032Z" fill="#3D3D3D"/>
<path d="M57.2355 55.1981V56.1758H58.6328V56.4714H56.8823V53.689H58.6328L58.6082 53.9845H57.2355V54.9139H58.3196V55.2009H57.2355V55.1981Z" fill="#3D3D3D"/>
<path d="M30.3258 59.6603C30.3258 58.7452 30.8018 58.2251 31.5911 58.2251C32.1039 58.2251 32.3711 58.4354 32.5615 58.6685L32.2728 58.8418C32.1439 58.677 31.9535 58.5207 31.5911 58.5207C31.0199 58.5207 30.682 58.9271 30.682 59.6603C30.682 60.3936 31.0229 60.8 31.5911 60.8C31.9657 60.8 32.1991 60.6266 32.3251 60.422L32.6229 60.5613C32.4325 60.8597 32.1285 61.0956 31.5911 61.0956C30.8018 61.0956 30.3258 60.5755 30.3258 59.6632V59.6603Z" fill="#3D3D3D"/>
<path d="M33.8854 59.6603C33.8854 58.7452 34.3614 58.2251 35.166 58.2251C35.9706 58.2251 36.4497 58.7452 36.4497 59.6603C36.4497 60.5755 35.9706 61.0927 35.166 61.0927C34.3614 61.0927 33.8854 60.5726 33.8854 59.6603ZM36.0935 59.6603C36.0935 58.9271 35.7464 58.5207 35.166 58.5207C34.5856 58.5207 34.2385 58.9271 34.2385 59.6603C34.2385 60.3936 34.5825 60.8 35.166 60.8C35.7495 60.8 36.0935 60.3964 36.0935 59.6603Z" fill="#3D3D3D"/>
<path d="M38.059 61.0502V58.2678H39.6866L39.662 58.5634H38.4152V59.5496H39.4563V59.8366H38.4152V61.0531H38.059V61.0502Z" fill="#3D3D3D"/>
<path d="M41.2407 61.0502V58.2678H42.8684L42.8438 58.5634H41.597V59.5496H42.638V59.8366H41.597V61.0531H41.2407V61.0502Z" fill="#3D3D3D"/>
<path d="M44.7788 59.777V60.7546H46.1762V61.0502H44.4257V58.2678H46.1762L46.1516 58.5634H44.7819V59.4928H45.8629V59.7798H44.7819L44.7788 59.777Z" fill="#3D3D3D"/>
<path d="M48.1355 59.777V60.7546H49.5328V61.0502H47.7823V58.2678H49.5328L49.5083 58.5634H48.1355V59.4928H49.2196V59.7798H48.1355V59.777Z" fill="#3D3D3D"/>
</svg>
