<svg xmlns="http://www.w3.org/2000/svg" width="75" height="81" viewBox="0 0 75 81" fill="none">
<g clip-path="url(#clip0_208_20426)">
<path d="M37.3593 80.5C14.97 80.5 0.5 64.9104 0.5 40.7832C0.5 16.656 15.4262 0.5 37.644 0.5C59.8617 0.5 74.5032 16.0896 74.5032 40.2168C74.5032 64.344 59.5771 80.5 37.3625 80.5H37.3593ZM37.644 2.69103C16.7363 2.69103 2.69008 17.9991 2.69008 40.7832C2.69008 63.5673 15.9761 78.309 37.3625 78.309C58.7489 78.309 72.3164 63.0009 72.3164 40.2168C72.3164 17.4327 59.0271 2.69103 37.644 2.69103Z" fill="#3D3D3D"/>
<path d="M24.0635 25.0285H30.0515V25.2195C27.897 25.2842 27.5476 27.8183 27.5476 31.0514V48.6443H27.3567L13.3525 28.0092V41.5437C13.3525 45.285 14.2066 47.8514 16.4258 47.9162V48.1071H9.99463V47.9162C12.1491 47.7899 12.7832 45.285 12.7832 41.5437V28.8636C12.7832 26.4525 11.6121 25.4719 9.99463 25.2162V25.0253H16.8075L26.9782 40.1456V31.0482C26.9782 27.815 26.4703 25.501 24.0635 25.2162V25.0253V25.0285Z" fill="#3D3D3D"/>
<path d="M30.9411 47.3466L30.7179 41.5146H30.9088C32.4615 45.6669 34.5222 48.0456 37.7216 48.0456C40.1284 48.0456 42.1244 46.4598 42.1244 43.7962C42.1244 41.1327 39.8114 39.8673 37.2461 38.6278L35.5671 37.8348C33.6326 36.8833 31.2258 35.3946 31.2258 31.5886C31.2258 27.5949 33.982 24.6466 38.1001 24.6466C39.8438 24.6466 42.4414 25.1871 43.9619 25.7567V30.4171H43.771C42.0597 26.802 40.3161 25.0932 37.8122 25.0932C35.3083 25.0932 33.914 26.6791 33.914 29.0546C33.914 31.5595 35.813 32.511 37.8413 33.4949L39.4879 34.2878C42.2441 35.5888 44.8094 37.0775 44.8094 41.1036C44.8094 45.3497 41.7039 48.489 37.0779 48.489C35.2727 48.489 32.4518 47.9841 30.9314 47.3466H30.9411Z" fill="#3D3D3D"/>
<path d="M46.3137 36.631C46.3137 29.5304 51.0982 24.6499 57.5617 24.6499C60.5702 24.6499 62.9479 25.569 64.4393 26.3296L64.6301 31.5272H64.4393C62.8865 27.8183 60.732 25.0933 57.4356 25.0933C53.3789 25.0933 51.3862 29.9737 51.3862 36.5662C51.3862 43.1587 53.573 48.0424 57.4356 48.0424C60.732 48.0424 63.0774 45.188 64.8178 41.0066H65.0086L64.3422 46.9647C62.8541 47.6314 60.5088 48.4858 57.5617 48.4858C50.8136 48.4858 46.3137 43.9225 46.3137 36.631Z" fill="#3D3D3D"/>
<path d="M17.875 59.2564V56.088H18.2858L19.7578 58.635V56.088H20.1233V59.2564H19.7125L18.247 56.7223V59.2564H17.875Z" fill="#3D3D3D"/>
<path d="M21.8185 57.6738C21.8185 56.6317 22.3199 56.0394 23.1675 56.0394C24.015 56.0394 24.5197 56.6317 24.5197 57.6738C24.5197 58.7159 24.015 59.3049 23.1675 59.3049C22.3199 59.3049 21.8185 58.7127 21.8185 57.6738ZM24.1444 57.6738C24.1444 56.8388 23.7789 56.376 23.1675 56.376C22.5561 56.376 22.1905 56.8388 22.1905 57.6738C22.1905 58.5088 22.5528 58.9716 23.1675 58.9716C23.7821 58.9716 24.1444 58.512 24.1444 57.6738Z" fill="#3D3D3D"/>
<path d="M26.2115 59.2564V56.088H27.0397C27.6673 56.088 28.1881 56.2757 28.1881 56.9942C28.1881 57.4958 27.9228 57.7386 27.5444 57.8357C27.5767 57.8842 27.6091 57.9392 27.6446 58.0072L28.2884 59.2597H27.8614L27.3114 58.1625C27.2079 57.9554 27.1691 57.9263 26.9685 57.9263H26.5868V59.2597H26.2115V59.2564ZM26.5868 56.4052V57.6091H27.0397C27.4635 57.6091 27.8129 57.457 27.8129 56.991C27.8129 56.5249 27.4602 56.4052 27.0397 56.4052H26.5868Z" fill="#3D3D3D"/>
<path d="M29.9285 59.2564V56.088H30.8246C31.753 56.088 32.2609 56.6058 32.2609 57.6738C32.2609 58.7418 31.753 59.2564 30.8246 59.2564H29.9285ZM30.3037 56.4214V58.9198H30.8116C31.4942 58.9198 31.8856 58.5121 31.8856 57.6706C31.8856 56.8291 31.4942 56.4214 30.8116 56.4214H30.3037Z" fill="#3D3D3D"/>
<path d="M33.9528 59.2564V56.088H34.328V59.2564H33.9528Z" fill="#3D3D3D"/>
<path d="M36.0297 57.6738C36.0297 56.6317 36.5311 56.0394 37.3625 56.0394C37.9028 56.0394 38.1842 56.2789 38.3848 56.5443L38.0807 56.7417C37.9448 56.554 37.7443 56.376 37.3625 56.376C36.7608 56.376 36.405 56.8388 36.405 57.6738C36.405 58.5088 36.7608 58.9716 37.3625 58.9716C37.7572 58.9716 38.0031 58.7742 38.1357 58.5411L38.4495 58.6997C38.2489 59.0396 37.9254 59.3082 37.3593 59.3082C36.5279 59.3082 36.0265 58.7159 36.0265 57.677L36.0297 57.6738Z" fill="#3D3D3D"/>
<path d="M41.7589 58.8129L41.9885 58.5961C42.105 58.7579 42.367 58.9845 42.7585 58.9845C43.1822 58.9845 43.4216 58.745 43.4216 58.4019C43.4216 58.0783 43.1855 57.9262 42.8814 57.8194L42.6582 57.7449C42.1697 57.5864 41.8753 57.3663 41.8753 56.8614C41.8753 56.3565 42.2538 56.0426 42.8458 56.0426C43.2825 56.0426 43.5866 56.253 43.7548 56.473L43.5251 56.6899C43.4152 56.5378 43.1661 56.363 42.8458 56.363C42.4835 56.363 42.2506 56.5507 42.2506 56.8549C42.2506 57.1592 42.4738 57.308 42.7811 57.4116L42.9978 57.4893C43.4863 57.6414 43.7936 57.8938 43.7936 58.3954C43.7936 58.9295 43.4152 59.3049 42.7488 59.3049C42.2441 59.3049 41.9077 59.0168 41.7556 58.8129H41.7589Z" fill="#3D3D3D"/>
<path d="M45.9124 59.2564V56.4311H45.0293V56.088H47.1709V56.4311H46.2877V59.2564H45.9124Z" fill="#3D3D3D"/>
<path d="M49.3059 59.2564V58.3016L48.3354 56.0847H48.7398L49.4968 57.8712L50.2538 56.0847H50.6549L49.6812 58.3016V59.2564H49.3059Z" fill="#3D3D3D"/>
<path d="M52.1462 59.2564V56.088H52.5215V58.9134H53.7443L53.7217 59.2564H52.1462Z" fill="#3D3D3D"/>
<path d="M55.6562 57.8065V58.9198H57.1281V59.2564H55.2842V56.088H57.1281L57.1022 56.4246H55.6562V57.4829H56.7981V57.8098H55.6562V57.8065Z" fill="#3D3D3D"/>
<path d="M27.3114 62.8875C27.3114 61.8454 27.8128 61.2532 28.6442 61.2532C29.1845 61.2532 29.4659 61.4927 29.6665 61.758L29.3624 61.9555C29.2265 61.7678 29.0259 61.5898 28.6442 61.5898C28.0425 61.5898 27.6867 62.0526 27.6867 62.8875C27.6867 63.7225 28.0457 64.1853 28.6442 64.1853C29.0389 64.1853 29.2847 63.9879 29.4174 63.7549L29.7312 63.9135C29.5306 64.2533 29.2103 64.5219 28.6442 64.5219C27.8128 64.5219 27.3114 63.9297 27.3114 62.8908V62.8875Z" fill="#3D3D3D"/>
<path d="M31.0608 62.8875C31.0608 61.8454 31.5622 61.2532 32.4098 61.2532C33.2573 61.2532 33.762 61.8454 33.762 62.8875C33.762 63.9297 33.2573 64.5187 32.4098 64.5187C31.5622 64.5187 31.0608 63.9264 31.0608 62.8875ZM33.3867 62.8875C33.3867 62.0526 33.0212 61.5898 32.4098 61.5898C31.7984 61.5898 31.4328 62.0526 31.4328 62.8875C31.4328 63.7225 31.7951 64.1853 32.4098 64.1853C33.0244 64.1853 33.3867 63.7258 33.3867 62.8875Z" fill="#3D3D3D"/>
<path d="M35.457 64.4702V61.3018H37.1716L37.1457 61.6383H35.8323V62.7614H36.9289V63.0882H35.8323V64.4734H35.457V64.4702Z" fill="#3D3D3D"/>
<path d="M38.8085 64.4702V61.3018H40.523L40.4971 61.6383H39.1837V62.7614H40.2804V63.0882H39.1837V64.4734H38.8085V64.4702Z" fill="#3D3D3D"/>
<path d="M42.5352 63.0203V64.1336H44.0071V64.4702H42.1632V61.3018H44.0071L43.9813 61.6383H42.5385V62.6966H43.6772V63.0235H42.5385L42.5352 63.0203Z" fill="#3D3D3D"/>
<path d="M46.071 63.0203V64.1336H47.5429V64.4702H45.699V61.3018H47.5429L47.517 61.6383H46.071V62.6966H47.2129V63.0235H46.071V63.0203Z" fill="#3D3D3D"/>
</g>
<defs>
<clipPath id="clip0_208_20426">
<rect width="74" height="80" fill="white" transform="translate(0.5 0.5)"/>
</clipPath>
</defs>
</svg>

